# xmcd
#
# Track frame offsets:
#	150
#	13841
#	31734
#	46235
#	59647
#	78419
#	92624
#	107284
#	123730
#	139326
#	153925
#	168001
#	182610
#	198044
#	213589
#	230786
#	246142
#	263988
#
# Disc length: 3787 seconds
#
# Revision: 1
# Processed by: cddbd v1.5PL3 Copyright (c) Steve Scherf et al.
# Submitted via: EasyCDDAExtractor 6.2.0.3
#
DISCID=ef0ec912
DTITLE=Various Artist - 71 Saloon Tunes
DYEAR=2004
DGENRE=Country
TTITLE0=Dalley, Amy - Men Don't Change
TTITLE1=Mahood, Beverly - First Day You Wake Up Alone
TTITLE2=Currington, Billy - I Got A Feelin'
TTITLE3=Dean, Billy - Thank God I'm A Country Boy
TTITLE4=Young, Craig - You Can't Take It With You   w Terri Clark
TTITLE5=Murphy, David Lee - Loco
TTITLE6=Walker, Doc - Get Up
TTITLE7=Parton, Dolly - Welcome Home
TTITLE8=Warren, Jamie - That's The Kinda Love
TTITLE9=Bates, Jeff - I Wanna Make You Cry
TTITLE10=Keifer, Katy - My Song
TTITLE11=Denney, Kevin - A Year At A Time
TTITLE12=Green, Pat - Guy Like Me
TTITLE13=Proctor, Rachel - Didn't I
TTITLE14=McEntire, Reba - Somebody
TTITLE15=Isaacs, Sonya - No Regrets
TTITLE16=Keith, Toby - Whiskey Girl
TTITLE17=Judd, Wynonna - Flies On The Butter You Can't Go Home Again   w Naomi
TTITLE17=Judd
EXTD=
EXTT0=
EXTT1=
EXTT2=
EXTT3=
EXTT4=
EXTT5=
EXTT6=
EXTT7=
EXTT8=
EXTT9=
EXTT10=
EXTT11=
EXTT12=
EXTT13=
EXTT14=
EXTT15=
EXTT16=
EXTT17=
PLAYORDER=
